<?xml version="1.0" encoding="UTF-8"?>
<svg version="1.1" xmlns="http://www.w3.org/2000/svg" width="2440" height="2330">
<path d="M0 0 C2.73705563 1.22326508 4.48499178 2.87342301 6.66015625 4.9375 C10.13134206 8.16038201 13.6447456 11.23392282 17.34765625 14.1875 C22.42188631 18.2870192 27.15995955 22.67120862 31.90527344 27.13964844 C35.36792372 30.38268831 38.89034218 33.47164875 42.59765625 36.4375 C48.2939733 40.99791926 53.57084691 45.95484663 58.890625 50.94140625 C63.54956944 55.30740293 68.36836428 59.46925833 73.234375 63.6015625 C79.81885649 69.20325804 86.28995627 74.8898613 92.6171875 80.78125 C96.07134999 83.99719439 99.57201217 87.14267955 103.140625 90.23046875 C105.48324775 92.27383431 107.79039047 94.35430859 110.09765625 96.4375 C113.07828346 99.12733431 116.07010858 101.80060364 119.09765625 104.4375 C122.99278436 107.83003093 126.82548388 111.28944201 130.66015625 114.75 C132.79183106 116.66304149 134.93784735 118.55637612 137.09765625 120.4375 C142.68745614 125.30893203 148.17300523 130.2964515 153.67578125 135.265625 C157.44066475 138.66094938 161.20959176 142.04808342 165.03515625 145.375 C169.23207706 149.02928862 173.33418385 152.78494973 177.4453125 156.53515625 C179.62226621 158.50691844 181.81604299 160.45115337 184.03515625 162.375 C187.98432992 165.80518576 191.8278793 169.34753518 195.67553711 172.89038086 C198.45241995 175.44290453 201.2473764 177.96725746 204.09765625 180.4375 C207.97582638 183.80072638 211.75293436 187.27085671 215.53076172 190.74560547 C220.35350516 195.17973628 225.22106745 199.5626824 230.09765625 203.9375 C232.60078042 206.18952707 235.10312239 208.44242123 237.60546875 210.6953125 C239.24505504 212.17042618 240.8856528 213.64441652 242.52734375 215.1171875 C247.5922762 219.66429938 252.62398917 224.2460477 257.63623047 228.85107422 C260.77396738 231.73143829 263.92769443 234.59266247 267.09765625 237.4375 C271.30526886 241.2135626 275.47607997 245.02854007 279.63891602 248.85375977 C282.7539875 251.71352204 285.886173 254.55265359 289.03515625 257.375 C294.00278008 261.83393915 298.90448877 266.36188331 303.8046875 270.89453125 C306.91548466 273.77144762 310.0356397 276.63799617 313.16015625 279.5 C313.65112793 279.94972168 314.14209961 280.39944336 314.64794922 280.86279297 C315.6365014 281.76812602 316.62510802 282.67339963 317.61376953 283.57861328 C320.61037356 286.32278868 323.60504608 289.0690719 326.60009766 291.81494141 C329.086945 294.09475366 331.57422421 296.37409058 334.0625 298.65234375 C340.87600309 304.89198377 347.6707985 311.15157649 354.45654297 317.42138672 C356.62856067 319.42796659 358.80141698 321.43363692 360.97436523 323.43920898 C362.05858733 324.43994158 363.14273419 325.44075569 364.22680664 326.44165039 C366.9091388 328.91811326 369.59231101 331.39365272 372.27734375 333.8671875 C378.7118525 339.7970289 385.12107557 345.75300666 391.51342773 351.72827148 C395.50683405 355.45904144 399.51458826 359.1735346 403.53515625 362.875 C410.41553617 369.21266624 417.23530031 375.61436169 424.05371094 382.01855469 C426.71913877 384.52097499 429.38725116 387.02052243 432.05541992 389.52001953 C434.70969611 392.00703278 437.36248668 394.4956275 440.01513672 396.984375 C441.45120476 398.3312149 442.88775764 399.67753796 444.32470703 401.0234375 C446.5835396 403.13936731 448.84072964 405.25703754 451.09765625 407.375 C451.77948975 408.01300537 452.46132324 408.65101074 453.16381836 409.30834961 C457.27858235 413.17352048 461.3015955 417.11328072 465.26269531 421.13598633 C467.06342765 422.90389531 468.92401058 424.55511429 470.84765625 426.1875 C474.44282442 429.27311677 477.77102486 432.56948616 481.09765625 435.9375 C484.28051933 439.15961528 487.44455918 442.328026 490.91015625 445.25 C495.70852205 449.32408417 500.06439802 453.85398002 504.46801758 458.3449707 C507.53162157 461.45065828 510.62892191 464.44102748 513.94140625 467.28125 C519.84358371 472.37051844 525.2104137 478.00651135 530.67578125 483.5546875 C531.51625 484.40289062 532.35671875 485.25109375 533.22265625 486.125 C533.96773437 486.88167969 534.7128125 487.63835937 535.48046875 488.41796875 C537.54707767 490.40746539 539.63766045 492.28240901 541.81054688 494.15039062 C546.62074939 498.32780474 551.0857626 502.81833251 555.56640625 507.34375 C556.44615112 508.22728149 557.325896 509.11081299 558.2322998 510.02111816 C561.4942257 513.2972232 564.75158189 516.5778498 568.00860596 519.85882568 C571.21252885 523.08580538 574.42034741 526.3088808 577.62890625 529.53125 C578.45934448 530.36998657 579.28978271 531.20872314 580.14538574 532.07287598 C584.36559783 536.31063573 588.66149406 540.36588936 593.19564819 544.26480103 C596.40058273 547.08334361 599.40211797 550.09923299 602.4140625 553.12109375 C603.0742186 553.78029312 603.73437469 554.43949249 604.41453552 555.1186676 C605.79801131 556.50146835 607.18024708 557.88551076 608.5612793 559.27075195 C610.65497294 561.36980343 612.75395499 563.4634594 614.85351562 565.55664062 C616.20735196 566.91113786 617.560878 568.26594531 618.9140625 569.62109375 C619.53092422 570.23593124 620.14778595 570.85076874 620.78334045 571.48423767 C623.82370166 574.54072511 626.75063974 577.64848348 629.56811523 580.91235352 C633.11815223 585.01677128 636.89401232 588.84461353 640.75390625 592.65625 C641.45986938 593.35842651 642.16583252 594.06060303 642.89318848 594.78405762 C645.12556983 597.00434603 647.36117736 599.22133955 649.59765625 601.4375 C652.54856003 604.36159479 655.49598828 607.28913057 658.44140625 610.21875 C659.10515259 610.874198 659.76889893 611.529646 660.45275879 612.20495605 C664.32884052 616.06095573 667.99080211 620.03854918 671.56262207 624.1776123 C673.31042438 626.18143464 675.13657068 628.07630452 677.03515625 629.9375 C677.70289063 630.5975 678.370625 631.2575 679.05859375 631.9375 C679.73148438 632.5975 680.404375 633.2575 681.09765625 633.9375 C685.75685046 638.50743762 690.21681642 643.14819446 694.4765625 648.09375 C696.74011886 650.66820447 699.14467852 653.0422394 701.59765625 655.4375 C705.36258378 659.14606251 708.92592678 662.95628602 712.35546875 666.9765625 C715.06566109 670.02704804 717.99839458 672.84636392 720.90234375 675.7109375 C723.53772368 678.38383174 725.97532114 681.19118303 728.41796875 684.0390625 C730.5905256 686.49455699 732.91609228 688.76878437 735.25537109 691.06396484 C737.02805525 692.86671838 738.68461605 694.72340002 740.33203125 696.640625 C744.06137665 700.92976643 747.93535384 705.06557593 751.84765625 709.1875 C757.43355923 715.09729795 762.97543319 721.04009389 768.45703125 727.046875 C771.32605975 730.1875275 774.21018056 733.31382243 777.09765625 736.4375 C782.32314345 742.09319293 787.53027363 747.76543271 792.72998047 753.44482422 C794.12344777 754.96564876 795.51853376 756.48497324 796.9140625 758.00390625 C801.90142263 763.43404917 806.86064473 768.88768716 811.78515625 774.375 C814.37380661 777.24350445 816.98354733 780.09222981 819.59765625 782.9375 C824.46709729 788.23873075 829.29089608 793.57942683 834.09765625 798.9375 C835.59736753 800.60442647 837.09736946 802.27109149 838.59765625 803.9375 C856.59765625 823.9375 856.59765625 823.9375 858.83984375 826.4296875 C860.36473869 828.12342894 861.89081027 829.81611169 863.41796875 831.5078125 C866.81638557 835.27487115 870.20582235 839.04665586 873.53515625 842.875 C876.3458815 846.10309512 879.21345525 849.27488443 882.09765625 852.4375 C885.55093778 856.22412998 888.95864676 860.0422632 892.3203125 863.91015625 C894.39125112 866.27239173 896.49278473 868.60545853 898.59765625 870.9375 C903.39673417 876.26084693 908.13843575 881.62613339 912.77734375 887.08984375 C917.83859393 893.04263072 922.94726115 898.91779505 928.28515625 904.625 C931.85094737 908.43749544 935.26866411 912.29784558 938.53515625 916.375 C942.04408764 920.75001972 945.7561013 924.85770909 949.59765625 928.9375 C954.22384215 933.85058115 958.57036312 938.88871721 962.7890625 944.16015625 C965.45045083 947.36192799 968.25227871 950.39984918 971.09765625 953.4375 C975.53600531 958.17614143 979.68908078 963.05869579 983.75390625 968.125 C986.42973903 971.33599934 989.24125332 974.38777636 992.09765625 977.4375 C996.55640069 982.19838994 1000.73563455 987.1021782 1004.8203125 992.19140625 C1007.31592172 995.20069147 1009.9353243 998.07687022 1012.59765625 1000.9375 C1016.88726032 1005.54748943 1020.90176747 1010.31533516 1024.8515625 1015.22265625 C1027.18596215 1018.04423495 1029.61756223 1020.74340712 1032.09765625 1023.4375 C1036.19116716 1027.88477112 1040.02208124 1032.48467463 1043.81640625 1037.1875 C1046.16484593 1040.01849578 1048.60675527 1042.73133598 1051.09765625 1045.4375 C1055.19116716 1049.88477112 1059.02208124 1054.48467463 1062.81640625 1059.1875 C1065.16484593 1062.01849578 1067.60675527 1064.73133598 1070.09765625 1067.4375 C1074.21144534 1071.9073512 1078.06852922 1076.52794893 1081.8828125 1081.25390625 C1084.05398452 1083.88458557 1086.30006982 1086.41692424 1088.59765625 1088.9375 C1092.51656877 1093.23741791 1096.18936494 1097.69669547 1099.84765625 1102.21875 C1102.03267194 1104.85897729 1104.28937016 1107.4047972 1106.59765625 1109.9375 C1110.51656877 1114.23741791 1114.18936494 1118.69669547 1117.84765625 1123.21875 C1120.03267194 1125.85897729 1122.28937016 1128.4047972 1124.59765625 1130.9375 C1128.41936488 1135.13479034 1132.01239814 1139.47460231 1135.58203125 1143.88671875 C1138.52690574 1147.45806499 1141.55482601 1150.94964487 1144.59765625 1154.4375 C1148.33180793 1158.71956292 1152.02224729 1163.02081835 1155.59765625 1167.4375 C1159.67522752 1172.47098541 1163.9027154 1177.36083309 1168.15576172 1182.24560547 C1173.07374407 1187.89705911 1177.91964659 1193.60629555 1182.74609375 1199.3359375 C1184.13081095 1200.97678736 1185.51984516 1202.61388805 1186.91015625 1204.25 C1191.16279749 1209.25696389 1195.39213511 1214.27647129 1199.53515625 1219.375 C1203.6090104 1224.38444091 1207.7985772 1229.28713045 1212.02514648 1234.16772461 C1212.97713948 1235.2701404 1213.92449024 1236.3765894 1214.86621094 1237.48779297 C1215.89947406 1238.70419194 1216.95326346 1239.90311385 1218.01171875 1241.09765625 C1219.09765625 1242.9375 1219.09765625 1242.9375 1219.07421875 1244.890625 C1217.70554814 1247.7593586 1215.77477329 1249.50361858 1213.47265625 1251.6875 C1210.42390744 1254.64151368 1207.46305162 1257.57015103 1204.72265625 1260.8125 C1201.6833488 1264.37036227 1198.42401605 1267.65191691 1195.09765625 1270.9375 C1191.81297314 1274.18201578 1188.59031599 1277.41672384 1185.59765625 1280.9375 C1182.12155048 1285.0270362 1178.31515969 1288.7471054 1174.5 1292.515625 C1171.75440139 1295.24058001 1169.10495673 1297.98773473 1166.59765625 1300.9375 C1163.12155048 1305.0270362 1159.31515969 1308.7471054 1155.5 1312.515625 C1152.75440139 1315.24058001 1150.10495673 1317.98773473 1147.59765625 1320.9375 C1144.12155048 1325.0270362 1140.31515969 1328.7471054 1136.5 1332.515625 C1133.75440139 1335.24058001 1131.10495673 1337.98773473 1128.59765625 1340.9375 C1125.12222075 1345.02624765 1121.31665388 1348.74566684 1117.50219727 1352.51342773 C1114.14704731 1355.8433233 1111.00040173 1359.27681399 1107.9375 1362.87890625 C1105.13929833 1366.00980281 1102.12991969 1368.92579695 1099.14208984 1371.87353516 C1096.53644886 1374.45772318 1094.03712516 1377.07959158 1091.66015625 1379.875 C1088.64412798 1383.414291 1085.40317724 1386.67244445 1082.09765625 1389.9375 C1078.81297634 1393.18201876 1075.59031621 1396.41672358 1072.59765625 1399.9375 C1069.12155048 1404.0270362 1065.31515969 1407.7471054 1061.5 1411.515625 C1058.75440139 1414.24058001 1056.10495673 1416.98773473 1053.59765625 1419.9375 C1050.12155048 1424.0270362 1046.31515969 1427.7471054 1042.5 1431.515625 C1039.75440139 1434.24058001 1037.10495673 1436.98773473 1034.59765625 1439.9375 C1031.12155048 1444.0270362 1027.31515969 1447.7471054 1023.5 1451.515625 C1020.75440139 1454.24058001 1018.10495673 1456.98773473 1015.59765625 1459.9375 C1012.12155048 1464.0270362 1008.31515969 1467.7471054 1004.5 1471.515625 C1001.75440139 1474.24058001 999.10495673 1476.98773473 996.59765625 1479.9375 C993.12155048 1484.0270362 989.31515969 1487.7471054 985.5 1491.515625 C982.75440139 1494.24058001 980.10495673 1496.98773473 977.59765625 1499.9375 C974.12155048 1504.0270362 970.31515969 1507.7471054 966.5 1511.515625 C963.75440139 1514.24058001 961.10495673 1516.98773473 958.59765625 1519.9375 C955.12222075 1524.02624765 951.31665388 1527.74566684 947.50219727 1531.51342773 C944.14704731 1534.8433233 941.00040173 1538.27681399 937.9375 1541.87890625 C935.13929833 1545.00980281 932.12991969 1547.92579695 929.14208984 1550.87353516 C926.53644886 1553.45772318 924.03712516 1556.07959158 921.66015625 1558.875 C918.64412798 1562.414291 915.40317724 1565.67244445 912.09765625 1568.9375 C908.22433227 1572.7634656 904.54112872 1576.64852132 901.015625 1580.80078125 C897.94313246 1584.22370063 894.6501939 1587.42660053 891.359375 1590.63867188 C888.36563444 1593.58147182 885.6503916 1596.60493142 883.09765625 1599.9375 C880.02297605 1598.59232741 878.22193723 1597.20843546 876.09765625 1594.625 C872.89937643 1590.84334296 869.59332356 1587.18956217 866.22265625 1583.5625 C862.65285688 1579.71194848 859.10118596 1575.84871317 855.59765625 1571.9375 C850.67208187 1566.44393145 845.66243747 1561.02975424 840.65039062 1555.61523438 C838.10999141 1552.87032504 835.57236697 1550.1228564 833.03515625 1547.375 C832.53636963 1546.83496338 832.03758301 1546.29492676 831.52368164 1545.73852539 C828.2468903 1542.18871254 824.98253805 1538.62784656 821.72265625 1535.0625 C816.9685262 1529.86564267 812.16645176 1524.71452377 807.35546875 1519.5703125 C803.62786399 1515.58283116 799.91818362 1511.57970537 796.22265625 1507.5625 C790.26632591 1501.09328014 784.23662627 1494.69405712 778.203125 1488.296875 C775.46934017 1485.39730774 772.7429915 1482.49104328 770.0234375 1479.578125 C764.35158269 1473.50447603 758.68516615 1467.45558298 752.7578125 1461.62890625 C751.09757517 1459.93741739 749.5668944 1458.18314203 748.03515625 1456.375 C743.86071737 1451.50642809 739.26715124 1447.05503401 734.69116211 1442.56811523 C731.63686287 1439.55518169 728.69355401 1436.51598931 725.91015625 1433.25 C720.80625973 1427.33085792 715.15442273 1421.92624427 709.59765625 1416.4375 C707.39668571 1414.26347227 705.19929837 1412.08590934 703.00390625 1409.90625 C702.51515015 1409.42579224 702.02639404 1408.94533447 701.52282715 1408.45031738 C698.8441711 1405.79019562 696.30952104 1403.05481965 693.84910583 1400.19093323 C690.40692344 1396.2429165 686.80478603 1392.50287645 683.09594727 1388.80639648 C682.43477905 1388.14347595 681.77361084 1387.48055542 681.09240723 1386.79754639 C678.9312806 1384.63206009 676.76656587 1382.47020362 674.6015625 1380.30859375 C673.08358928 1378.7899458 671.56576444 1377.27114952 670.04808044 1375.75221252 C666.87669317 1372.57935625 663.70351802 1369.408302 660.52905273 1366.23852539 C656.47640919 1362.19157862 652.42827225 1358.1401584 648.38147068 1354.08737087 C645.25103508 1350.95330812 642.11820477 1347.82164783 638.98466301 1344.69069099 C637.49171659 1343.19840788 635.99950219 1341.70539203 634.50805855 1340.21160698 C632.41738073 1338.11836711 630.3234852 1336.02839737 628.22875977 1333.93920898 C627.62331833 1333.33174332 627.01787689 1332.72427765 626.39408875 1332.09840393 C622.70707556 1328.4292712 618.8995896 1324.95384149 614.95114803 1321.56725407 C611.76220819 1318.76325584 608.79749212 1315.74027734 605.81640625 1312.71875 C605.15862183 1312.05717896 604.5008374 1311.39560791 603.82312012 1310.71398926 C601.04699067 1307.92171856 598.27694088 1305.12344584 595.50634766 1302.32568359 C593.46598545 1300.26709102 591.42251294 1298.21162097 589.37890625 1296.15625 C588.76720581 1295.53625122 588.15550537 1294.91625244 587.52526855 1294.27746582 C583.79010851 1290.52154223 579.9214026 1286.99053636 575.91320801 1283.52819824 C573.66109738 1281.55500833 571.54093743 1279.47792056 569.44140625 1277.34375 C568.64605469 1276.54066406 567.85070313 1275.73757813 567.03125 1274.91015625 C565.40885417 1273.26171875 563.78645833 1271.61328125 562.1640625 1269.96484375 C557.912845 1265.6722854 553.5971498 1261.56543015 549.01367188 1257.63085938 C545.72112466 1254.72093233 542.6727591 1251.5736152 539.59765625 1248.4375 C535.2339273 1244.02664771 530.86324651 1239.73986042 526.1171875 1235.73828125 C522.7758159 1232.75883771 519.6768857 1229.5364298 516.53198242 1226.35229492 C513.15386516 1222.94840281 509.69419003 1219.70994604 506.01171875 1216.6328125 C504.09765625 1214.9375 504.09765625 1214.9375 501.99488354 1211.88013005 C497.69486868 1207.63298137 492.31353157 1208.15320773 486.6151343 1208.12446964 C485.01940473 1208.1358188 483.42367899 1208.14771812 481.82795715 1208.16010666 C480.12487432 1208.15142101 478.42180319 1208.14011305 476.71875328 1208.12641752 C472.01778788 1208.09630635 467.31750421 1208.10373138 462.61648864 1208.11708378 C457.5100793 1208.12506238 452.40383269 1208.0984855 447.29748154 1208.07629704 C438.34079667 1208.04224535 429.38429902 1208.03073291 420.42755318 1208.03385162 C407.10843338 1208.0384801 393.78954044 1208.00910067 380.47047596 1207.97327123 C355.29972132 1207.90696749 330.12903827 1207.8822836 304.95821613 1207.8716546 C302.18115389 1207.8704777 299.40409165 1207.86929014 296.62702942 1207.86809444 C295.9378995 1207.86780231 295.24876958 1207.86751018 294.53875694 1207.8672092 C279.27075502 1207.86058229 264.0027693 1207.84388644 248.73477756 1207.82558813 C242.44873646 1207.81808448 236.16269505 1207.81084233 229.87665367 1207.80358434 C229.18210341 1207.80278133 228.48755314 1207.80197833 227.7719559 1207.80115099 C187.96539827 1207.75525143 148.15884928 1207.72329199 108.3522644 1207.71934128 C106.86230226 1207.71918358 105.37234011 1207.71902503 103.88237797 1207.71886563 C97.15526963 1207.71815691 90.42816129 1207.71752249 83.70105294 1207.71689668 C80.70124649 1207.71661573 77.70144003 1207.71632624 74.70163358 1207.71603518 C73.20017521 1207.71589192 71.69871684 1207.71575316 70.19725847 1207.71561891 C22.72754591 1207.71135125 -24.74182453 1207.65327578 -72.21142578 1207.55175781 C-107.60901714 1207.47607872 -143.00654418 1207.40473034 -178.40422058 1207.38762283 C-179.11685422 1207.38727606 -179.82948787 1207.38692928 -180.56371647 1207.386572 C-196.20833836 1207.37912055 -211.85295875 1207.37576395 -227.49758233 1207.37619633 C-233.09568776 1207.37630993 -238.69379318 1207.37610012 -244.2918986 1207.37572475 C-245.68456548 1207.37563328 -247.07723236 1207.37555746 -248.46989925 1207.37549734 C-270.65604113 1207.3743633 -292.84185902 1207.33164659 -315.02790201 1207.26796711 C-337.99926819 1207.20233617 -360.97022392 1207.18768078 -383.9416855 1207.23140153 C-397.18556756 1207.25512092 -410.42807101 1207.23996772 -423.67179227 1207.16915516 C-432.51744548 1207.12572019 -441.36211223 1207.13312288 -450.20773512 1207.18190961 C-455.24914112 1207.20827681 -460.28788518 1207.21259415 -465.32909143 1207.15506276 C-487.17826646 1205.7790049 -487.17826646 1205.7790049 -506.36751199 1213.88912316 C-508.93482285 1216.72741016 -510.88728718 1219.6815319 -512.90234375 1222.9375 C-515.15041733 1225.09873462 -515.15041733 1225.09873462 -517.02734375 1226.5625 C-521.03241432 1229.94876138 -524.68201177 1233.65986913 -528.34033203 1237.41259766 C-531.0550539 1240.17528606 -533.84194459 1242.78415815 -536.77734375 1245.3125 C-541.0285395 1248.98986514 -544.96806684 1252.92638175 -548.90234375 1256.9375 C-552.75429395 1260.86468361 -556.59932089 1264.73013903 -560.77734375 1268.3125 C-565.74678102 1272.59281609 -570.30217957 1277.26763636 -574.90234375 1281.9375 C-576.60815393 1283.66915579 -578.31645241 1285.39836426 -580.02734375 1287.125 C-580.77242187 1287.88167969 -581.5175 1288.63835937 -582.28515625 1289.41796875 C-584.38265355 1291.43720123 -586.50832684 1293.34609703 -588.7109375 1295.24609375 C-592.9444158 1298.92219704 -596.90089427 1302.82529172 -600.83984375 1306.8125 C-601.56421631 1307.54065918 -602.28858887 1308.26881836 -603.03491211 1309.01904297 C-605.32652678 1311.32275646 -607.61485027 1313.62969474 -609.90234375 1315.9375 C-612.92019456 1318.98214779 -615.94147791 1322.02332967 -618.96484375 1325.0625 C-619.98082642 1326.09093018 -619.98082642 1326.09093018 -621.01733398 1327.14013672 C-624.11711879 1330.25557122 -627.24270163 1333.27132948 -630.58569336 1336.12524414 C-636.6584711 1341.36760852 -642.24226046 1347.13374065 -647.90625 1352.80859375 C-649.1558552 1354.0575238 -650.40560868 1355.30630551 -651.65550232 1356.5549469 C-654.26341679 1359.16139431 -656.86953282 1361.76962294 -659.47436523 1364.37915039 C-662.7949034 1367.70538521 -666.11991187 1371.02710934 -669.44629002 1374.34750271 C-672.02447801 1376.92205823 -674.60025619 1379.49901415 -677.17533684 1382.07667732 C-678.39967635 1383.30167868 -679.62474459 1384.52595219 -680.85058784 1385.74944878 C-686.53859544 1391.42895252 -692.18071973 1397.09759924 -697.40293884 1403.2157135 C-699.88126054 1406.0616031 -702.5580582 1408.6976038 -705.24609375 1411.34375 C-705.81888062 1411.91275024 -706.39166748 1412.48175049 -706.98181152 1413.06799316 C-709.39173657 1415.46182686 -711.80768853 1417.84954243 -714.22314453 1420.23779297 C-723.02966611 1428.94016518 -723.02966611 1428.94016518 -731.31835938 1438.13085938 C-734.9598308 1442.28420224 -739.0002645 1446.07185905 -742.94140625 1449.9375 C-746.902912 1453.85311959 -750.64641094 1457.87371009 -754.28125 1462.09375 C-756.54480636 1464.66820447 -758.94936602 1467.0422394 -761.40234375 1469.4375 C-765.16727128 1473.14606251 -768.73061428 1476.95628602 -772.16015625 1480.9765625 C-774.87034859 1484.02704804 -777.80308208 1486.84636392 -780.70703125 1489.7109375 C-783.34241118 1492.38383174 -785.78000864 1495.19118303 -788.22265625 1498.0390625 C-790.42399768 1500.52709026 -792.7832289 1502.82944077 -795.15234375 1505.15625 C-796.98476862 1507.02139674 -798.6958751 1508.95677746 -800.40234375 1510.9375 C-803.15540255 1514.13301468 -806.04828653 1517.10900611 -809.05761719 1520.06152344 C-810.84118824 1521.87530851 -812.50931681 1523.7438273 -814.16796875 1525.671875 C-817.7328554 1529.77187148 -821.42027898 1533.73993543 -825.15234375 1537.6875 C-831.45943254 1544.38702987 -837.70001943 1551.14094102 -843.90234375 1557.9375 C-845.73460302 1559.9384853 -847.56848248 1561.93798295 -849.40234375 1563.9375 C-850.31903988 1564.93747299 -851.23570658 1565.93747296 -852.15234375 1566.9375 C-857.65234375 1572.9375 -857.65234375 1572.9375 -859.02880859 1574.43896484 C-859.94076954 1575.43391974 -860.85255487 1576.42903563 -861.76416016 1577.42431641 C-864.12637251 1580.00288881 -866.49203803 1582.57816534 -868.86328125 1585.1484375 C-869.35119141 1585.67824219 -869.83910156 1586.20804688 -870.34179688 1586.75390625 C-871.69178168 1588.21960404 -873.0431112 1589.68406294 -874.39453125 1591.1484375 C-876.97734817 1594.02091613 -879.44792847 1596.95525348 -881.90234375 1599.9375 C-885.17653243 1598.84610377 -885.73782521 1598.20839683 -887.83984375 1595.625 C-891.02076804 1591.86327 -894.39618727 1588.39048357 -897.90234375 1584.9375 C-901.80190711 1581.08693514 -905.51064073 1577.1732192 -909.0625 1572.99609375 C-911.40729439 1570.37251277 -913.89864943 1567.90759896 -916.40234375 1565.4375 C-919.49725508 1562.38411717 -922.52168632 1559.31426339 -925.33984375 1556 C-928.35587202 1552.460709 -931.59682276 1549.20255555 -934.90234375 1545.9375 C-938.77962749 1542.10762306 -942.46477985 1538.21698694 -945.99609375 1534.0625 C-948.52484814 1531.24356068 -951.20880376 1528.59811163 -953.90234375 1525.9375 C-957.77962338 1522.10761987 -961.46477981 1518.21698698 -964.99609375 1514.0625 C-967.52484814 1511.24356068 -970.20880376 1508.59811163 -972.90234375 1505.9375 C-976.77962338 1502.10761987 -980.46477981 1498.21698698 -983.99609375 1494.0625 C-986.52484814 1491.24356068 -989.20880376 1488.59811163 -991.90234375 1485.9375 C-995.77962338 1482.10761987 -999.46477981 1478.21698698 -1002.99609375 1474.0625 C-1005.52484814 1471.24356068 -1008.20880376 1468.59811163 -1010.90234375 1465.9375 C-1014.77962338 1462.10761987 -1018.46477981 1458.21698698 -1021.99609375 1454.0625 C-1024.52484814 1451.24356068 -1027.20880376 1448.59811163 -1029.90234375 1445.9375 C-1033.77962338 1442.10761987 -1037.46477981 1438.21698698 -1040.99609375 1434.0625 C-1043.52484814 1431.24356068 -1046.20880376 1428.59811163 -1048.90234375 1425.9375 C-1052.77962338 1422.10761987 -1056.46477981 1418.21698698 -1059.99609375 1414.0625 C-1063.02235905 1410.68895836 -1066.27445081 1407.54546464 -1069.49780273 1404.36157227 C-1072.85295269 1401.0316767 -1075.99959827 1397.59818601 -1079.0625 1393.99609375 C-1081.40729439 1391.37251277 -1083.89864943 1388.90759896 -1086.40234375 1386.4375 C-1089.49725508 1383.38411717 -1092.52168632 1380.31426339 -1095.33984375 1377 C-1098.35587202 1373.460709 -1101.59682276 1370.20255555 -1104.90234375 1366.9375 C-1108.77962749 1363.10762306 -1112.46477985 1359.21698694 -1115.99609375 1355.0625 C-1118.52484814 1352.24356068 -1121.20880376 1349.59811163 -1123.90234375 1346.9375 C-1127.77962338 1343.10761987 -1131.46477981 1339.21698698 -1134.99609375 1335.0625 C-1137.52484814 1332.24356068 -1140.20880376 1329.59811163 -1142.90234375 1326.9375 C-1146.77962338 1323.10761987 -1150.46477981 1319.21698698 -1153.99609375 1315.0625 C-1156.52484814 1312.24356068 -1159.20880376 1309.59811163 -1161.90234375 1306.9375 C-1165.77962338 1303.10761987 -1169.46477981 1299.21698698 -1172.99609375 1295.0625 C-1175.52484814 1292.24356068 -1178.20880376 1289.59811163 -1180.90234375 1286.9375 C-1184.77962338 1283.10761987 -1188.46477981 1279.21698698 -1191.99609375 1275.0625 C-1195.01959829 1271.69203593 -1198.26849224 1268.55123948 -1201.48901367 1265.37036133 C-1204.92633255 1261.95902943 -1208.17613529 1258.45245375 -1211.296875 1254.74609375 C-1213.58919862 1252.16374379 -1216.13433159 1249.86944183 -1218.71484375 1247.578125 C-1219.90234375 1245.9375 -1219.90234375 1245.9375 -1219.62695312 1244.02661133 C-1218.42188664 1240.55230073 -1215.81750882 1238.07551344 -1213.40234375 1235.375 C-1212.29715855 1234.11417333 -1211.19300021 1232.85244585 -1210.08984375 1231.58984375 C-1209.27193359 1230.65760986 -1209.27193359 1230.65760986 -1208.4375 1229.70654297 C-1206.37195784 1227.32630784 -1204.38337893 1224.88830271 -1202.40234375 1222.4375 C-1198.46791119 1217.59073525 -1194.41679801 1212.85470745 -1190.34155273 1208.12670898 C-1187.32989366 1204.62514698 -1184.37175425 1201.08963443 -1181.46484375 1197.5 C-1177.32173384 1192.39442535 -1173.02003925 1187.43949947 -1168.69946289 1182.48461914 C-1165.53768537 1178.85012149 -1162.43384169 1175.18229157 -1159.40234375 1171.4375 C-1154.27372244 1165.10876255 -1148.90959704 1158.99044166 -1143.56201172 1152.84716797 C-1137.35361752 1145.70358759 -1131.17410403 1138.54104128 -1125.21484375 1131.1875 C-1121.66489054 1126.81242253 -1117.94670554 1122.63200808 -1114.15234375 1118.46875 C-1111.82372322 1115.8490519 -1109.60671428 1113.1623469 -1107.40234375 1110.4375 C-1103.79201933 1105.97473787 -1100.01806446 1101.71030467 -1096.15234375 1097.46875 C-1093.82372322 1094.8490519 -1091.60671428 1092.1623469 -1089.40234375 1089.4375 C-1085.79085241 1084.97329543 -1082.01573681 1080.70747886 -1078.1484375 1076.46484375 C-1075.84046777 1073.86787607 -1073.64678512 1071.20345987 -1071.46484375 1068.5 C-1067.60409238 1063.726097 -1063.527973 1059.20361572 -1059.37109375 1054.6875 C-1056.95856271 1052.00012366 -1054.66978165 1049.24784556 -1052.40234375 1046.4375 C-1048.56515344 1041.68154581 -1044.50849274 1037.18245199 -1040.37109375 1032.6875 C-1037.95856271 1030.00012366 -1035.66978165 1027.24784556 -1033.40234375 1024.4375 C-1029.56282573 1019.67866077 -1025.50374696 1015.17687025 -1021.36328125 1010.6796875 C-1018.9919448 1008.03734117 -1016.74981378 1005.33055833 -1014.52734375 1002.5625 C-1010.66080191 997.7668951 -1006.55382392 993.26871333 -1002.34643555 988.77612305 C-998.42341651 984.56338877 -994.78330656 980.17345547 -991.1796875 975.68359375 C-988.24156924 972.14071701 -985.12003197 968.78308228 -981.98583984 965.41552734 C-979.01504309 962.20433127 -976.20266054 958.91113159 -973.46484375 955.5 C-969.10093916 950.07841657 -964.41812845 945.00907883 -959.67578125 939.921875 C-955.38252576 935.31601774 -951.27904953 930.5564993 -947.19921875 925.76171875 C-941.37000687 918.91930944 -935.44701844 912.19632339 -929.34765625 905.59375 C-925.1984571 901.08663272 -921.19533571 896.46230269 -917.23046875 891.79296875 C-911.63225402 885.21031046 -905.94748762 878.74252059 -900.05859375 872.41796875 C-896.84014855 868.9611202 -893.69289503 865.45709555 -890.6015625 861.88671875 C-886.32766415 856.98401697 -881.93314904 852.18637834 -877.57421875 847.359375 C-874.17889437 843.5944915 -870.79176033 839.82556449 -867.46484375 836 C-863.81055513 831.80307919 -860.05489402 827.7009724 -856.3046875 823.58984375 C-854.33292531 821.41289004 -852.38869038 819.21911326 -850.46484375 817 C-847.03398142 813.05004739 -843.49104104 809.205629 -839.94726562 805.35742188 C-837.41508967 802.6029424 -834.9120664 799.83016213 -832.46484375 797 C-828.84022286 792.81640143 -825.06849308 788.7731539 -821.30493164 784.71508789 C-818.62833337 781.82385872 -815.97923196 778.91860596 -813.40234375 775.9375 C-808.87924316 770.71178184 -804.1452064 765.67816819 -799.44873047 760.60888672 C-797.03071625 757.99541571 -794.62134253 755.3740738 -792.21484375 752.75 C-791.75795166 752.25185791 -791.30105957 751.75371582 -790.83032227 751.24047852 C-788.06383254 748.21927871 -785.3207408 745.17836459 -782.58984375 742.125 C-778.14729131 737.1719927 -773.60142322 732.31903638 -769.05322266 727.46337891 C-765.82017991 724.00718735 -762.61551314 720.53184678 -759.46484375 717 C-754.93458104 711.93082129 -750.27814585 706.98400911 -745.62133789 702.03149414 C-741.69356236 697.85287402 -737.7849393 693.65811441 -733.90234375 689.4375 C-727.61215239 682.60484983 -721.26000026 675.83105467 -714.89941406 669.06396484 C-712.83306189 666.86372921 -710.76988053 664.66055102 -708.70703125 662.45703125 C-695.95051039 648.84661661 -695.95051039 648.84661661 -689.9921875 643.08984375 C-688.13322042 641.17528139 -686.39740818 639.21217366 -684.65625 637.19140625 C-680.30664453 632.1839454 -675.59564313 627.5792036 -670.86328125 622.9375 C-670.19554687 622.2775 -669.5278125 621.6175 -668.83984375 620.9375 C-667.95619141 620.07125 -667.95619141 620.07125 -667.0546875 619.1875 C-665.28037576 617.3326841 -663.6221675 615.44618852 -661.95787048 613.49501038 C-657.16949373 608.01360923 -652.01051414 602.90555821 -646.86157227 597.76733398 C-645.76002724 596.66443129 -644.65869448 595.56131655 -643.55755615 594.45800781 C-640.58671358 591.48263442 -637.61275032 588.51039921 -634.63805127 585.53888202 C-631.51329493 582.41667186 -628.39099559 579.29200613 -625.26829529 576.16773987 C-620.02563053 570.92325999 -614.7808705 565.68088244 -609.53491211 560.43969727 C-603.48514094 554.39536745 -597.43898044 548.34744382 -591.39468247 542.29764122 C-586.18866339 537.08707227 -580.98068323 531.87846947 -575.7710833 526.67148072 C-572.66681069 523.56876058 -569.56320206 520.46538439 -566.46136665 517.36022758 C-563.54401405 514.43996897 -560.62419283 511.52220055 -557.70251465 508.60626984 C-556.63587677 507.54094498 -555.57007174 506.47478544 -554.50520134 505.40769386 C-549.3211586 500.21384254 -544.11436386 495.09668947 -538.52419186 490.33561039 C-536.16910098 488.30540977 -533.99026833 486.12008686 -531.80859375 483.90625 C-530.92300781 483.01292969 -530.03742187 482.11960937 -529.125 481.19921875 C-528.22652344 480.28785156 -527.32804688 479.37648438 -526.40234375 478.4375 C-521.01790799 472.97581266 -515.64084805 467.61679792 -509.81445312 462.62695312 C-506.34738782 459.56361146 -503.14059164 456.23899492 -499.90234375 452.9375 C-495.34244592 448.28854166 -490.71192553 443.84013782 -485.77734375 439.58984375 C-483.02295572 437.1625393 -480.46380717 434.56509938 -477.90234375 431.9375 C-474.05384139 428.03600621 -470.13786695 424.32903636 -465.9609375 420.77734375 C-462.83235455 417.98120984 -459.91836766 414.97423816 -456.97290039 411.98852539 C-453.72853601 408.71712934 -450.36608039 405.66778962 -446.86328125 402.6796875 C-443.81142387 399.96827636 -440.99089609 397.03412853 -438.125 394.12890625 C-435.47532935 391.51648932 -432.69061572 389.10447379 -429.8671875 386.68359375 C-427.08809861 384.2139064 -424.51373879 381.55846678 -421.90625 378.91015625 C-419.31988224 376.36412171 -416.58699095 374.01728443 -413.8359375 371.65234375 C-411.33802819 369.4370262 -409.02209386 367.0685183 -406.68359375 364.6875 C-404.1833819 362.23115151 -401.52553859 359.97440632 -398.87109375 357.6875 C-396.39589338 355.48732189 -394.09472622 353.14318952 -391.77636719 350.78027344 C-389.97344796 349.00741852 -388.11662332 347.35069452 -386.19921875 345.703125 C-381.91007732 341.9737796 -377.77426782 338.09980241 -373.65234375 334.1875 C-367.74120879 328.60033329 -361.79684329 323.05744569 -355.7890625 317.57421875 C-352.67133103 314.7264938 -349.56637983 311.86533402 -346.46484375 309 C-345.92512939 308.50153564 -345.38541504 308.00307129 -344.8293457 307.48950195 C-343.18684448 305.97234887 -341.54455763 304.4549641 -339.90234375 302.9375 C-332.0782449 295.70775406 -324.24330671 288.49028739 -316.38623047 281.29638672 C-313.89069968 279.01107504 -311.39659848 276.7242042 -308.90234375 274.4375 C-307.9023505 273.52082596 -306.90235051 272.6041593 -305.90234375 271.6875 C-305.40734375 271.23375 -304.91234375 270.78 -304.40234375 270.3125 C-302.90234375 268.9375 -301.40234375 267.5625 -299.90234375 266.1875 C-299.40718262 265.73358887 -298.91202148 265.27967773 -298.40185547 264.81201172 C-297.40353714 263.89691367 -296.40516489 262.98187445 -295.40673828 262.06689453 C-292.88055955 259.75171148 -290.35537543 257.4354599 -287.83203125 255.1171875 C-282.40299933 250.13134186 -276.95078553 245.17328108 -271.46484375 240.25 C-268.59633966 237.66134997 -265.74757725 235.05164854 -262.90234375 232.4375 C-258.45169528 228.34832552 -253.97156292 224.29380916 -249.47265625 220.2578125 C-246.55805901 217.62670193 -243.66696966 214.97095583 -240.77734375 212.3125 C-236.90601039 208.75242962 -232.99286324 205.25044013 -229.01953125 201.8046875 C-225.79345857 198.95955329 -222.63498935 196.04117121 -219.46923828 193.12939453 C-214.64649484 188.69526372 -209.77893255 184.3123176 -204.90234375 179.9375 C-203.23541728 178.43778872 -201.56875226 176.93778679 -199.90234375 175.4375 C-189.90234375 166.4375 -189.90234375 166.4375 -187.41015625 164.1953125 C-185.71641481 162.67041756 -184.02373206 161.14434598 -182.33203125 159.6171875 C-178.58670119 156.23837292 -174.83716168 152.86854035 -171.02734375 149.5625 C-167.59902183 146.57833314 -164.24613574 143.51561516 -160.90234375 140.4375 C-156.94640267 136.79587329 -152.95672897 133.20250627 -148.89453125 129.6796875 C-146.5421374 127.62249601 -144.22199409 125.53153085 -141.90234375 123.4375 C-138.92171654 120.74766569 -135.92989142 118.07439636 -132.90234375 115.4375 C-127.34434612 110.59378319 -121.87385077 105.65081921 -116.4296875 100.6796875 C-112.28264396 96.90725803 -108.09235305 93.25330256 -103.71484375 89.75 C-97.64417713 84.84345269 -92.0116546 79.50549383 -86.33203125 74.15625 C-82.12865234 70.19906577 -77.80557511 66.40700245 -73.40869141 62.66699219 C-66.00190031 56.36398361 -58.70265019 49.98238893 -51.55859375 43.3828125 C-47.02723698 39.21129877 -42.37403866 35.19070506 -37.6875 31.1953125 C-36.48812966 30.17205265 -35.28891558 29.14860963 -34.08984375 28.125 C-33.48374268 27.60776367 -32.8776416 27.09052734 -32.25317383 26.55761719 C-28.51182834 23.3526062 -24.84127445 20.08548497 -21.21484375 16.75 C-16.69083896 12.59461783 -12.0088966 8.68707939 -7.21484375 4.84765625 C-4.92046444 3.06216267 -4.92046444 3.06216267 -3.33984375 1.12109375 C-1.90234375 -0.0625 -1.90234375 -0.0625 0 0 Z M-4 420.75390625 C-4.63268799 421.34985596 -5.26537598 421.94580566 -5.91723633 422.55981445 C-6.59294678 423.20007568 -7.26865723 423.84033691 -7.96484375 424.5 C-12.58406277 428.84606563 -17.20895956 433.16141861 -22.015625 437.30078125 C-24.33893162 439.31623772 -26.6198284 441.37598462 -28.90234375 443.4375 C-31.88297096 446.12733431 -34.87479608 448.80060364 -37.90234375 451.4375 C-41.75206109 454.79247455 -45.54887373 458.20388072 -49.33984375 461.625 C-51.81499706 463.85867493 -54.29602687 466.08567716 -56.77734375 468.3125 C-61.02374329 472.13292842 -65.23713035 475.98851054 -69.44311523 479.85327148 C-72.55831568 482.71323387 -75.69068915 485.55250001 -78.83984375 488.375 C-88.61243128 497.15165504 -98.21072725 506.1222954 -107.7980957 515.1003418 C-110.34531255 517.48458331 -112.89878743 519.86168263 -115.45947266 522.23144531 C-127.79442795 533.69309863 -139.69740252 545.57818944 -151.58984375 557.49462891 C-154.47626546 560.38680845 -157.36724081 563.27438848 -160.25950813 566.16072083 C-162.5211356 568.41871771 -164.78035544 570.6791115 -167.03887558 572.94021606 C-168.10412448 574.00612415 -169.17009465 575.07131198 -170.23685074 576.13571167 C-176.00764136 581.89652024 -181.59767091 587.74220276 -186.90234375 593.9375 C-188.18077595 595.33014627 -189.46742764 596.71539792 -190.76953125 598.0859375 C-191.74974243 599.1212561 -191.74974243 599.1212561 -192.74975586 600.17749023 C-193.41885986 600.88204346 -194.08796387 601.58659668 -194.77734375 602.3125 C-200.57580846 608.44575978 -206.29407483 614.629564 -211.90234375 620.9375 C-213.40132464 622.60508331 -214.90134831 624.27172976 -216.40234375 625.9375 C-217.14484375 626.76378906 -217.88734375 627.59007812 -218.65234375 628.44140625 C-220.14717064 630.09972983 -221.64714955 631.75342441 -223.15234375 633.40234375 C-226.96649525 637.59393732 -230.66248704 641.83355652 -234.21484375 646.25 C-238.10425533 651.0625529 -242.22977625 655.5834852 -246.45581055 660.09643555 C-250.40024814 664.33244858 -254.06715076 668.74384808 -257.69140625 673.2578125 C-260.01169325 676.07003315 -262.43305509 678.75547263 -264.90234375 681.4375 C-269.01613284 685.9073512 -272.87321672 690.52794893 -276.6875 695.25390625 C-278.85867202 697.88458557 -281.10475732 700.41692424 -283.40234375 702.9375 C-290.97466423 711.2604679 -297.89690793 720.13775637 -304.90234375 728.9375 C-303.55003188 731.96727429 -302.04753832 734.02222613 -299.671875 736.328125 C-299.03741455 736.95098389 -298.4029541 737.57384277 -297.74926758 738.21557617 C-297.07790771 738.86631104 -296.40654785 739.5170459 -295.71484375 740.1875 C-291.19348437 744.63241512 -286.79225919 749.06806541 -282.703125 753.91796875 C-279.72024398 757.2631954 -276.49382446 760.3654929 -273.30615234 763.51416016 C-269.95124471 766.84380335 -266.80486193 770.27708131 -263.7421875 773.87890625 C-261.39739311 776.50248723 -258.90603807 778.96740104 -256.40234375 781.4375 C-253.30743242 784.49088283 -250.28300118 787.56073661 -247.46484375 790.875 C-244.44881548 794.414291 -241.20786474 797.67244445 -237.90234375 800.9375 C-234.02506001 804.76737694 -230.33990765 808.65801306 -226.80859375 812.8125 C-224.27983936 815.63143932 -221.59588374 818.27688837 -218.90234375 820.9375 C-215.02506412 824.76738013 -211.33990769 828.65801302 -207.80859375 832.8125 C-205.27983936 835.63143932 -202.59588374 838.27688837 -199.90234375 840.9375 C-196.02506412 844.76738013 -192.33990769 848.65801302 -188.80859375 852.8125 C-186.27983936 855.63143932 -183.59588374 858.27688837 -180.90234375 860.9375 C-177.02506412 864.76738013 -173.33990769 868.65801302 -169.80859375 872.8125 C-167.27983936 875.63143932 -164.59588374 878.27688837 -161.90234375 880.9375 C-158.02506412 884.76738013 -154.33990769 888.65801302 -150.80859375 892.8125 C-148.27983936 895.63143932 -145.59588374 898.27688837 -142.90234375 900.9375 C-139.02506412 904.76738013 -135.33990769 908.65801302 -131.80859375 912.8125 C-129.27983936 915.63143932 -126.59588374 918.27688837 -123.90234375 920.9375 C-120.02506412 924.76738013 -116.33990769 928.65801302 -112.80859375 932.8125 C-109.78232845 936.18604164 -106.53023669 939.32953536 -103.30688477 942.51342773 C-99.95173481 945.8433233 -96.80508923 949.27681399 -93.7421875 952.87890625 C-90.94644208 956.00705452 -87.94095656 958.9219599 -84.95336914 961.86474609 C-82.26758422 964.52510183 -79.71648121 967.23774194 -77.27734375 970.125 C-61.05327613 988.81877346 -35.20361788 999.41012752 -10.72900391 1001.16503906 C17.58719712 1002.46985748 47.79975564 996.72559404 69.66015625 977.3125 C71.15495513 975.87019405 72.6356786 974.4130648 74.09765625 972.9375 C75.04511719 972.02677734 75.04511719 972.02677734 76.01171875 971.09765625 C78.92407442 968.26869402 81.64548552 965.3338461 84.28515625 962.25 C87.39380973 958.63610262 90.70880605 955.28463486 94.09765625 951.9375 C97.38234899 948.69299314 100.60499718 945.45827537 103.59765625 941.9375 C107.07376202 937.8479638 110.88015281 934.1278946 114.6953125 930.359375 C117.44091111 927.63441999 120.09035577 924.88726527 122.59765625 921.9375 C126.07376202 917.8479638 129.88015281 914.1278946 133.6953125 910.359375 C136.44091111 907.63441999 139.09035577 904.88726527 141.59765625 901.9375 C145.07376202 897.8479638 148.88015281 894.1278946 152.6953125 890.359375 C155.44091111 887.63441999 158.09035577 884.88726527 160.59765625 881.9375 C164.07376202 877.8479638 167.88015281 874.1278946 171.6953125 870.359375 C174.44091111 867.63441999 177.09035577 864.88726527 179.59765625 861.9375 C183.07376202 857.8479638 186.88015281 854.1278946 190.6953125 850.359375 C193.44091111 847.63441999 196.09035577 844.88726527 198.59765625 841.9375 C202.07309175 837.84875235 205.87865862 834.12933316 209.69311523 830.36157227 C213.04826519 827.0316767 216.19491077 823.59818601 219.2578125 819.99609375 C222.05601417 816.86519719 225.06539281 813.94920305 228.05322266 811.00146484 C230.65886364 808.41727682 233.15818734 805.79540842 235.53515625 803 C238.55118452 799.460709 241.79213526 796.20255555 245.09765625 792.9375 C248.38233616 789.69298124 251.60499629 786.45827642 254.59765625 782.9375 C258.07376202 778.8479638 261.88015281 775.1278946 265.6953125 771.359375 C268.44091111 768.63441999 271.09035577 765.88726527 273.59765625 762.9375 C277.07108089 758.85111807 280.87417563 755.13364834 284.68652344 751.36816406 C288.10142433 747.97905222 291.3261465 744.49523436 294.42578125 740.8125 C296.98688496 737.94023416 299.83683829 735.37450726 302.69140625 732.796875 C304.29987526 731.06685172 304.29987526 731.06685172 304.06640625 728.98828125 C302.80012077 726.30763659 301.13918511 724.5264028 299.09765625 722.375 C295.89114498 718.91640451 292.80734135 715.42220189 289.84765625 711.75 C284.6324711 705.31038007 279.18433873 699.08294597 273.74414062 692.83398438 C271.16128116 689.85894696 268.59722579 686.867942 266.03515625 683.875 C265.54571533 683.30378418 265.05627441 682.73256836 264.55200195 682.14404297 C262.04060414 679.21180291 259.53362043 676.27588524 257.03125 673.3359375 C252.39863596 667.90098598 247.74343003 662.50907997 242.91015625 657.25 C239.77740437 653.83966251 236.79748541 650.36993506 233.91015625 646.75 C229.4073796 641.16366747 224.53398842 635.9668788 219.58911133 630.77075195 C215.87324529 626.86193063 212.26654607 622.88378249 208.73193359 618.81030273 C206.44051403 616.18444682 204.08567383 613.62420975 201.72265625 611.0625 C198.40501159 607.45990427 195.10834314 603.84193021 191.84765625 600.1875 C182.86415202 590.19154359 173.66583584 580.40170141 164.10107422 570.96020508 C160.83482879 567.72129925 157.7876767 564.36156519 154.80078125 560.8671875 C150.35144944 555.82597211 145.53768662 551.16058624 140.4375 546.78515625 C134.48842161 541.61430637 129.0475726 535.93211205 123.51953125 530.3203125 C119.07290366 525.83276503 114.57351516 521.50691116 109.77734375 517.39453125 C107.14929928 515.11485547 104.76190642 512.62547339 102.34765625 510.125 C100.40329501 508.2346488 98.41853508 506.45581145 96.37109375 504.6796875 C92.04379119 500.92108181 87.87820739 497.00901462 83.72265625 493.0625 C78.37020162 488.00165029 72.99248352 482.98263571 67.4921875 478.08203125 C64.62870121 475.51750601 61.8007399 472.91591665 58.97265625 470.3125 C55.10415033 466.7547857 51.19431014 463.25460004 47.22265625 459.8125 C44.47941794 457.39199561 41.78898711 454.91530585 39.09765625 452.4375 C33.45101486 447.24471547 27.72040506 442.17200757 21.8828125 437.1953125 C20.68348035 436.17200789 19.48426479 435.14856662 18.28515625 434.125 C17.68630615 433.61428955 17.08745605 433.1035791 16.47045898 432.57739258 C11.58243387 428.39208288 6.82486046 424.08129836 2.109375 419.703125 C-1.00169731 416.97263047 -1.22828275 418.12891091 -4 420.75390625 Z " fill="#B57500" transform="translate(1219.90234375,0.0625)"/>
<path d="M0 0 C1.14429365 -0.03763865 1.14429365 -0.03763865 2.31170434 -0.07603767 C22.82425602 -0.73097671 43.3272055 -0.7360953 63.84709193 -0.54093063 C76.10241533 -0.42682229 88.35269631 -0.43687361 100.60816002 -0.52787971 C102.38657501 -0.54068636 104.16499001 -0.5534908 105.94340503 -0.56629305 C108.62531051 -0.58579637 111.3072147 -0.60544078 113.98911664 -0.62542456 C147.32691607 -0.87100543 180.65452173 -0.75038212 213.99151964 -0.46601153 C243.41374638 -0.21752639 272.81537944 -0.32130098 302.23583984 -0.71582031 C335.50613806 -1.16100311 368.76448057 -1.35970189 402.03773326 -1.19299942 C405.605701 -1.17582966 409.17367133 -1.15933829 412.74164391 -1.14320564 C414.05883464 -1.13696393 414.05883464 -1.13696393 415.40263529 -1.13059612 C427.62712246 -1.07679457 439.84248734 -1.16889188 452.06525328 -1.37367437 C472.52055715 -1.71295905 492.94893396 -1.73394887 513.3984375 -1.07421875 C514.54388589 -1.03792903 514.54388589 -1.03792903 515.71247465 -1.00090618 C557.92941571 0.39864974 590.09523659 7.59683709 620.45123613 39.64816654 C630.90063681 51.02968771 640.40923221 63.03696249 649.13406417 75.78267965 C653.73163483 82.48760522 658.93299496 88.37040723 664.72338867 94.07202148 C665.5715918 94.91249023 666.41979492 95.75295898 667.29370117 96.61889648 C668.15737305 97.46967773 669.02104492 98.32045898 669.91088867 99.19702148 C675.24285064 104.44940193 680.45596069 109.70918978 685.32885742 115.39233398 C687.72693153 118.12791481 690.30729796 120.6589733 692.91088867 123.19702148 C696.83408293 127.06685545 700.56515657 131.0052096 704.13745117 135.20483398 C707.10416848 138.53748999 710.32381058 141.61703799 713.49682617 144.75170898 C716.19840161 147.48825627 718.70167602 150.34681515 721.19995117 153.26733398 C723.65540144 156.0367231 726.30185206 158.59737272 728.93823242 161.19311523 C731.48426697 163.779483 733.83110424 166.51237428 736.19604492 169.26342773 C738.38184672 171.72805618 740.71593483 174.01518578 743.06640625 176.32128906 C744.849892 178.13499138 746.51793889 180.00343848 748.17651367 181.93139648 C751.74140032 186.03139297 755.4288239 189.99945691 759.16088867 193.94702148 C765.46797746 200.64655135 771.70856436 207.4004625 777.91088867 214.19702148 C779.74314794 216.19800678 781.57702741 218.19750444 783.41088867 220.19702148 C784.3275848 221.19699448 785.24425151 222.19699444 786.16088867 223.19702148 C786.61463867 223.69202148 787.06838867 224.18702148 787.53588867 224.69702148 C788.91088867 226.19702148 790.28588867 227.69702148 791.66088867 229.19702148 C792.1147998 229.69218262 792.56871094 230.18734375 793.03637695 230.69750977 C793.951475 231.6958281 794.86651423 232.69420035 795.78149414 233.69262695 C798.0966772 236.21880569 800.41292877 238.74398981 802.73120117 241.26733398 C807.71331495 246.69230232 812.66857281 252.13961009 817.58666992 257.62280273 C820.23898768 260.56041182 822.91779828 263.47274431 825.59838867 266.38452148 C829.46022957 270.58191359 833.23980937 274.83141367 836.91088867 279.19702148 C835.32149442 283.1291645 832.74746366 285.52722495 829.72338867 288.44702148 C826.51763407 291.57813928 823.37185655 294.71232055 820.47338867 298.13452148 C817.45736041 301.67381248 814.21640966 304.93196594 810.91088867 308.19702148 C807.62620877 311.44154024 804.40354863 314.67624506 801.41088867 318.19702148 C797.9347829 322.28655768 794.12839211 326.00662689 790.31323242 329.77514648 C787.56763381 332.5001015 784.91818915 335.24725621 782.41088867 338.19702148 C778.9347829 342.28655768 775.12839211 346.00662689 771.31323242 349.77514648 C768.56763381 352.5001015 765.91818915 355.24725621 763.41088867 358.19702148 C759.9347829 362.28655768 756.12839211 366.00662689 752.31323242 369.77514648 C749.56763381 372.5001015 746.91818915 375.24725621 744.41088867 378.19702148 C740.9347829 382.28655768 737.12839211 386.00662689 733.31323242 389.77514648 C730.56763381 392.5001015 727.91818915 395.24725621 725.41088867 398.19702148 C721.93545317 402.28576913 718.1298863 406.00518833 714.31542969 409.77294922 C710.96027974 413.10284479 707.81363415 416.53633548 704.75073242 420.13842773 C701.95253075 423.26932429 698.94315211 426.18531844 695.95532227 429.13305664 C693.34968128 431.71724466 690.85035758 434.33911306 688.47338867 437.13452148 C685.45736041 440.67381248 682.21640966 443.93196594 678.91088867 447.19702148 C675.62620877 450.44154024 672.40354863 453.67624506 669.41088867 457.19702148 C665.9347829 461.28655768 662.12839211 465.00662689 658.31323242 468.77514648 C655.56763381 471.5001015 652.91818915 474.24725621 650.41088867 477.19702148 C646.9347829 481.28655768 643.12839211 485.00662689 639.31323242 488.77514648 C636.56763381 491.5001015 633.91818915 494.24725621 631.41088867 497.19702148 C627.9347829 501.28655768 624.12839211 505.00662689 620.31323242 508.77514648 C617.56763381 511.5001015 614.91818915 514.24725621 612.41088867 517.19702148 C608.9347829 521.28655768 605.12839211 525.00662689 601.31323242 528.77514648 C598.56763381 531.5001015 595.91818915 534.24725621 593.41088867 537.19702148 C589.9347829 541.28655768 586.12839211 545.00662689 582.31323242 548.77514648 C579.56763381 551.5001015 576.91818915 554.24725621 574.41088867 557.19702148 C570.9347829 561.28655768 567.12839211 565.00662689 563.31323242 568.77514648 C560.56763381 571.5001015 557.91818915 574.24725621 555.41088867 577.19702148 C551.01591527 582.36057398 546.1381026 587.06289529 541.30541992 591.81225586 C540.02710464 593.08161935 538.77609257 594.37832562 537.52807617 595.67749023 C475.46963769 655.42031534 365.40129444 689.928468 273.88745117 691.40014648 C272.67580292 691.40720612 271.46415466 691.41426575 270.21578979 691.42153931 C266.32244869 691.43907506 262.42926801 691.44552486 258.53588867 691.44702148 C257.87233368 691.44731606 257.20877869 691.44761063 256.52511597 691.44791412 C236.81001818 691.44932875 217.43117445 691.22798753 197.91088867 688.19702148 C196.52911923 687.99052135 195.14727967 687.78449005 193.76538086 687.57885742 C118.99313541 676.32449003 30.39211475 647.60654483 -25.08911133 593.19702148 C-25.70028809 592.59954102 -26.31146484 592.00206055 -26.94116211 591.38647461 C-33.66199583 584.79798471 -40.27839564 578.20131291 -46.43017578 571.07421875 C-48.86248188 568.32190063 -51.46020006 565.75976377 -54.08911133 563.19702148 C-57.99060512 559.34851912 -61.69757497 555.43254469 -65.24926758 551.25561523 C-67.59406197 548.63203425 -70.08541701 546.16712044 -72.58911133 543.69702148 C-75.68402266 540.64363865 -78.70845389 537.57378487 -81.52661133 534.25952148 C-84.54263959 530.72023048 -87.78359034 527.46207703 -91.08911133 524.19702148 C-94.96639507 520.36714454 -98.65154743 516.47650843 -102.18286133 512.32202148 C-104.71161572 509.50308216 -107.39557134 506.85763311 -110.08911133 504.19702148 C-113.96639096 500.36714136 -117.65154739 496.47650847 -121.18286133 492.32202148 C-123.71161572 489.50308216 -126.39557134 486.85763311 -129.08911133 484.19702148 C-132.96639096 480.36714136 -136.65154739 476.47650847 -140.18286133 472.32202148 C-142.71161572 469.50308216 -145.39557134 466.85763311 -148.08911133 464.19702148 C-151.96639096 460.36714136 -155.65154739 456.47650847 -159.18286133 452.32202148 C-161.71161572 449.50308216 -164.39557134 446.85763311 -167.08911133 444.19702148 C-170.96639096 440.36714136 -174.65154739 436.47650847 -178.18286133 432.32202148 C-180.71161572 429.50308216 -183.39557134 426.85763311 -186.08911133 424.19702148 C-189.96639096 420.36714136 -193.65154739 416.47650847 -197.18286133 412.32202148 C-199.71161572 409.50308216 -202.39557134 406.85763311 -205.08911133 404.19702148 C-208.96639096 400.36714136 -212.65154739 396.47650847 -216.18286133 392.32202148 C-219.20912662 388.94847984 -222.46121839 385.80498612 -225.68457031 382.62109375 C-229.03972026 379.29119818 -232.18636585 375.85770749 -235.24926758 372.25561523 C-237.59406197 369.63203425 -240.08541701 367.16712044 -242.58911133 364.69702148 C-245.68402266 361.64363865 -248.70845389 358.57378487 -251.52661133 355.25952148 C-254.54263959 351.72023048 -257.78359034 348.46207703 -261.08911133 345.19702148 C-264.96639507 341.36714454 -268.65154743 337.47650843 -272.18286133 333.32202148 C-274.71161572 330.50308216 -277.39557134 327.85763311 -280.08911133 325.19702148 C-283.96639096 321.36714136 -287.65154739 317.47650847 -291.18286133 313.32202148 C-294.20843644 309.94924923 -297.45972884 306.80642993 -300.68237305 303.62329102 C-304.05001463 300.2810257 -307.21412917 296.83626849 -310.28833008 293.22045898 C-314.02279368 289.02425043 -318.08240032 285.13117636 -322.08911133 281.19702148 C-320.76054939 278.27058911 -319.29346955 276.12694518 -317.07739258 273.80639648 C-316.48812988 273.18361816 -315.89886719 272.56083984 -315.29174805 271.91918945 C-314.35613037 270.94296631 -314.35613037 270.94296631 -313.40161133 269.94702148 C-312.11816114 268.59110019 -310.83559737 267.23433927 -309.55395508 265.87670898 C-308.94535645 265.23314453 -308.33675781 264.58958008 -307.7097168 263.92651367 C-305.91597999 262.01225764 -304.17518216 260.06044793 -302.46411133 258.07202148 C-298.95362614 253.99418516 -295.29061207 250.06276885 -291.63378906 246.11669922 C-287.83731813 242.01684244 -284.08882533 237.87688269 -280.35864258 233.71655273 C-276.43307765 229.35856757 -272.46015198 225.04396418 -268.49194336 220.72485352 C-267.11554861 219.22581447 -265.74069394 217.72538073 -264.36645508 216.22436523 C-258.13001938 209.41291511 -251.87253789 202.62117682 -245.60522461 195.83813477 C-243.59872277 193.66620153 -241.59312696 191.49343294 -239.58764648 189.32055664 C-238.58612714 188.23549577 -237.58449899 187.15053532 -236.58276367 186.06567383 C-234.11811702 183.39637277 -231.65481311 180.7258602 -229.19458008 178.05249023 C-221.85912846 170.08571382 -214.46206945 162.17815049 -207.04760742 154.28491211 C-205.04410399 152.14904058 -203.04462111 150.00946978 -201.04614258 147.86889648 C-200.38332275 147.15967041 -199.72050293 146.45044434 -199.03759766 145.71972656 C-197.78260551 144.37667582 -196.52846876 143.03282499 -195.27539062 141.68798828 C-191.813564 137.98644841 -188.28901088 134.36639752 -184.67333984 130.81469727 C-183.04178746 129.14869848 -181.5292688 127.41701058 -180.02661133 125.63452148 C-176.04225446 120.99965737 -171.69187637 116.74496869 -167.32714844 112.47216797 C-164.35940224 109.54777696 -161.51861673 106.58098647 -158.80786133 103.41577148 C-153.49894245 97.26548376 -147.60917766 91.67437118 -141.82739258 85.97436523 C-140.93407227 85.0887793 -140.04075195 84.20319336 -139.12036133 83.29077148 C-138.32178711 82.50379883 -137.52321289 81.71682617 -136.70043945 80.90600586 C-131.48792908 75.49856241 -126.92019868 70.10130147 -122.89741993 63.73422146 C-92.19355116 15.69072167 -54.85621941 1.77951687 0 0 Z " fill="#B57500" transform="translate(962.089111328125,1638.802978515625)"/>
</svg>
